<?xml version="1.0" standalone="no"?>
<svg width="340px" height="200px" viewBox="0 0 340 200" version="1.1" xmlns="http://www.w3.org/2000/svg">

 <path id = "test" d=" M 300.00 200.00 L 60.00 200.00 L 60.00 150.00 L 70.00 150.00 L 70.00 190.00 L 290.00 190.00 L 290.00 150.00 L 300.00 150.00 z M 280.00 180.00 L 80.00 180.00 L 80.00 150.00 L 90.00 150.00 L 90.00 170.00 L 270.00 170.00 L 270.00 150.00 L 280.00 150.00 z M 260.00 160.00 L 100.00 160.00 L 100.00 150.00 L 110.00 150.00 L 260.00 150.00 z M 300.00 100.00 L 290.00 87.50 L 290.00 10.00 L 70.00 10.00 L 70.00 123.07 L 60.00 126.92 L 60.00 0.00 L 300.00 0.00 z M 280.00 75.00 L 270.00 62.50 L 270.00 30.00 L 90.00 30.00 L 90.00 115.38 L 80.00 119.23 L 80.00 20.00 L 280.00 20.00 z M 260.00 50.00 L 250.00 53.84 L 250.00 50.00 L 110.00 50.00 L 110.00 107.69 L 100.00 111.53 L 100.00 40.00 L 260.00 40.00 z"
 style="fill:#80FF9C; fill-opacity:0.25; fill-rule:nonzero; stroke:#003300; stroke-opacity:1.00; stroke-width:1.50;"/>

"
 <circle r="10" fill="skyblue"><animateMotion dur="10s" repeatCount="indefinite"><mpath href="#test"></mpath></animateMotion></circle> "  

  <path id = "test" d=" M 290.00 190.00 L 70.00 190.00 L 70.00 150.00 L 80.00 150.00 L 80.00 180.00 L 280.00 180.00 L 280.00 150.00 L 290.00 150.00 z M 270.00 170.00 L 90.00 170.00 L 90.00 150.00 L 100.00 150.00 L 100.00 160.00 L 260.00 160.00 L 260.00 150.00 L 270.00 150.00 z M 290.00 87.50 L 280.00 75.00 L 280.00 20.00 L 80.00 20.00 L 80.00 119.23 L 70.00 123.07 L 70.00 10.00 L 290.00 10.00 z M 270.00 62.50 L 260.00 50.00 L 260.00 40.00 L 100.00 40.00 L 100.00 111.53 L 90.00 115.38 L 90.00 30.00 L 270.00 30.00 z M 250.00 53.84 L 110.00 107.69 L 110.00 50.00 L 250.00 50.00 z"
 style="fill:#00009C; fill-opacity:0.09; fill-rule:nonzero; stroke:#B3B3DA; stroke-opacity:0.67; stroke-width:0.80;"/>

"
 <circle r="10" fill="skyblue"><animateMotion dur="10s" repeatCount="indefinite"><mpath href="#test"></mpath></animateMotion></circle> "  

  <path id = "test" d=" M 260.00 50.00 L 340.00 150.00 L 0.00 150.00 z"
 style="fill:#9C0000; fill-opacity:0.07; fill-rule:nonzero; stroke:#FFA07A; stroke-opacity:0.80; stroke-width:0.80;"/>

"
 <circle r="10" fill="skyblue"><animateMotion dur="10s" repeatCount="indefinite"><mpath href="#test"></mpath></animateMotion></circle> "  

 </svg>
