<?xml version="1.0" standalone="no"?>
<svg width="314.4px" height="300px" viewBox="0 0 314.4 300" version="1.1" xmlns="http://www.w3.org/2000/svg">

 <path id ="test" d=" M 64.00 50.00 L 214.00 250.00 L 24.00 250.00 z M 14.00 0.00 L 14.00 300.00 L 314.00 300.00 L 314.00 0.00 z M 254.00 270.00 L -0.40 270.00 L 53.16 2.21 z M 304.00 10.00 L 24.00 10.00 L 24.00 290.00 L 304.00 290.00 z"
 style="fill:#80FF9C; fill-opacity:0.25; fill-rule:evenodd; stroke:#003300; stroke-opacity:1.00; stroke-width:1.50;"/>
 
 <circle r="10" fill="skyblue">
		<animateMotion dur="10s" repeatCount="indefinite">
			<mpath href="#test"></mpath>
		</animateMotion>
	</circle>
	
	<svg height="500" width="700" viewBox="0 0 100 100" xmlns="http://www.w3.org/2000/svg">
    <path d="M10,20 A 30,30 0 0,0 40,70" style="stroke:#FFA500; stroke-width:1; fill:none" />
    <path d="M10,20 A 30,30 0 1 0 40,70" style="stroke: #FF0000; stroke-width:1; fill:none" />
    <path d="M10,20 A 30,30 0 0 0 40,70 A 30,30 0 1 1 10,20" style="stroke: #FFA500; stroke-width:1; fill:#FFD700" transform="translate(70,0)" />
</svg>  

 <!-- <path d=" M 64.00 50.00 L 214.00 250.00 L 24.00 250.00 z M 14.00 0.00 L 14.00 300.00 L 314.00 300.00 L 314.00 0.00 z M 254.00 270.00 L -0.40 270.00 L 53.16 2.21 z M 304.00 10.00 L 24.00 10.00 L 24.00 290.00 L 304.00 290.00 z"
 style="fill:#80FF9C; fill-opacity:0.25; fill-rule:evenodd; stroke:#003300; stroke-opacity:1.00; stroke-width:1.50;"/> -->

</svg>
