<?xml version="1.0" standalone="no"?>
<svg width="800px" height="600px" viewBox="0 0 800 600" version="1.1" xmlns="http://www.w3.org/2000/svg">

 <path d=" M 164.97 533.12 L 70.32 533.12 L 117.64 217.67 z M 172.64 539.73 L 62.64 539.73 L 117.64 173.14 z M 180.32 546.34 L 54.97 546.34 L 117.64 128.61 z M 188.00 552.95 L 47.29 552.95 L 117.64 84.07 z M 195.68 559.55 L 39.61 559.55 L 117.64 39.55 z"
 style="fill:#80FF9C; fill-opacity:0.25; fill-rule:evenodd; stroke:#003300; stroke-opacity:1.00; stroke-width:1.50;"/>

 <path d=" M 210.15 64.00 L 527.30 64.00 L 527.30 328.29 L 210.15 328.29 M 289.44 130.07 L 606.59 130.07 L 606.59 394.37 L 289.44 394.37 M 421.58 196.15 L 738.74 196.15 L 738.74 460.44 L 421.58 460.44"
 style="fill:none; stroke:#B3B3DA;stroke-opacity:0.67; stroke-width:1.20;"/>

 <path d=" M 540.52 64.00 L 540.52 116.86 L 612.01 116.86 L 619.80 124.66 L 619.80 182.93 L 738.74 182.93 L 740.45 183.06 L 742.04 183.33 L 743.63 183.86 L 746.53 185.44 L 747.86 186.50 L 749.97 189.14 L 750.76 190.60 L 751.29 192.18 L 751.69 193.77 L 751.95 195.49 L 751.95 460.44 L 751.82 462.16 L 751.56 463.75 L 751.03 465.33 L 749.44 468.24 L 748.38 469.56 L 745.74 471.67 L 744.29 472.47 L 742.70 473.00 L 741.12 473.39 L 739.40 473.66 L 421.58 473.66 L 419.87 473.52 L 418.28 473.26 L 416.69 472.73 L 413.79 471.15 L 412.47 470.09 L 410.35 467.45 L 409.56 465.99 L 409.03 464.41 L 408.63 462.82 L 408.37 461.10 L 408.37 407.58 L 284.02 407.58 L 276.22 399.79 L 276.22 341.51 L 210.15 341.51 L 196.93 328.29 L 196.93 64.00 L 210.15 50.79 L 527.30 50.79 z M 619.80 209.36 L 619.80 399.79 L 612.01 407.58 L 434.80 407.58 L 434.80 447.23 L 725.52 447.23 L 725.52 209.36 z M 302.65 341.51 L 302.65 381.15 L 408.37 381.15 L 408.37 341.51 z M 540.52 209.36 L 540.52 328.29 L 527.30 341.51 L 434.80 341.51 L 434.80 381.15 L 593.37 381.15 L 593.37 209.36 z M 223.36 77.21 L 223.36 315.08 L 276.22 315.08 L 276.22 124.66 L 284.02 116.86 L 514.09 116.86 L 514.09 77.21 z M 302.65 143.29 L 302.65 315.08 L 408.37 315.08 L 408.37 196.15 L 408.50 194.43 L 408.76 192.84 L 409.29 191.26 L 410.88 188.35 L 411.94 187.03 L 414.58 184.91 L 416.03 184.12 L 417.62 183.59 L 419.20 183.20 L 420.92 182.93 L 514.09 182.93 L 514.09 143.29 z M 434.80 209.36 L 434.80 315.08 L 514.09 315.08 L 514.09 209.36 z M 540.52 143.29 L 540.52 182.93 L 593.37 182.93 L 593.37 143.29 z"
 style="fill:#80FF9C; fill-opacity:0.25; fill-rule:evenodd; stroke:#003300; stroke-opacity:1.00; stroke-width:1.50;"/>

</svg>
