<?xml version="1.0" standalone="no"?>
<svg width="450px" height="720px" viewBox="0 0 450 720" version="1.1" xmlns="http://www.w3.org/2000/svg">

 <path id = "test" d=" M 176.12 709.35 L 164.15 706.36 L 153.68 700.38 L 147.70 688.41 L 149.20 677.94 L 150.69 665.97 L 155.18 655.50 L 158.17 646.53 L 150.69 646.53 L 143.21 645.03 L 134.24 645.03 L 125.26 643.54 L 120.78 646.53 L 116.29 655.50 L 108.81 659.99 L 95.35 661.49 L 83.38 661.49 L 69.92 661.49 L 56.46 659.99 L 43.00 659.99 L 29.54 658.50 L 16.08 657.00 L 10.09 646.53 L 14.58 633.07 L 22.06 622.60 L 32.53 613.62 L 40.01 607.64 L 43.00 598.67 L 40.01 591.19 L 32.53 585.21 L 23.56 576.23 L 16.08 565.76 L 13.09 552.30 L 11.59 538.84 L 13.09 525.38 L 14.58 511.91 L 14.58 498.45 L 17.57 486.49 L 19.07 473.03 L 20.56 459.56 L 23.56 446.10 L 29.54 434.14 L 37.02 423.67 L 44.50 414.69 L 53.47 404.22 L 62.44 395.25 L 71.42 386.27 L 81.89 375.80 L 90.86 366.83 L 101.33 356.36 L 110.31 347.38 L 120.78 338.41 L 131.25 329.44 L 141.72 320.46 L 152.19 311.49 L 162.66 307.00 L 174.62 304.01 L 188.09 299.52 L 198.56 292.04 L 204.54 280.08 L 207.53 266.62 L 212.02 254.65 L 216.50 241.19 L 223.98 230.72 L 220.99 221.74 L 213.51 209.78 L 207.53 200.80 L 200.05 191.83 L 192.57 184.35 L 185.09 175.38 L 177.62 167.90 L 170.14 158.92 L 162.66 146.96 L 156.68 133.50 L 149.20 120.03 L 143.21 106.57 L 137.23 93.11 L 131.25 79.65 L 125.26 66.19 L 119.28 52.73 L 116.29 43.75 L 114.79 34.78 L 120.78 22.81 L 128.26 15.33 L 138.73 12.34 L 150.69 10.85 L 164.15 13.84 L 176.12 18.32 L 188.09 25.80 L 198.56 34.78 L 209.03 43.75 L 218.00 54.22 L 226.97 64.69 L 234.45 76.66 L 240.44 88.62 L 247.91 100.59 L 253.90 112.56 L 259.88 124.52 L 265.86 136.49 L 273.34 146.96 L 277.83 134.99 L 279.32 121.53 L 280.82 108.07 L 280.82 93.11 L 283.81 79.65 L 286.80 66.19 L 291.29 55.72 L 295.78 43.75 L 300.26 33.28 L 306.25 22.81 L 319.71 19.82 L 328.68 28.79 L 333.17 42.26 L 333.17 55.72 L 334.67 70.68 L 334.67 84.14 L 334.67 97.60 L 334.67 109.56 L 336.16 120.03 L 336.16 132.00 L 336.16 143.97 L 342.15 143.97 L 354.11 146.96 L 364.58 149.95 L 375.05 155.93 L 384.03 163.41 L 390.01 172.38 L 395.99 181.36 L 401.97 191.83 L 406.46 202.30 L 413.94 214.26 L 421.42 227.73 L 428.90 239.69 L 434.88 248.67 L 437.87 259.14 L 437.87 271.10 L 436.38 283.07 L 433.38 293.54 L 427.40 304.01 L 419.92 311.49 L 410.95 320.46 L 406.46 330.93 L 403.47 339.91 L 407.96 353.37 L 412.44 366.83 L 415.44 380.29 L 416.93 395.25 L 418.43 410.21 L 416.93 423.67 L 415.44 438.62 L 410.95 452.09 L 407.96 465.55 L 403.47 479.01 L 398.98 492.47 L 394.50 505.93 L 391.50 519.39 L 388.51 534.35 L 387.02 547.81 L 385.52 562.77 L 384.03 576.23 L 385.52 589.69 L 390.01 603.15 L 394.50 615.12 L 400.48 627.09 L 406.46 639.05 L 412.44 651.02 L 419.92 662.98 L 427.40 676.44 L 430.39 689.91 L 424.41 698.88 L 412.44 698.88 L 400.48 700.38 L 390.01 698.88 L 379.54 698.88 L 369.07 697.38 L 358.60 692.90 L 349.62 685.42 L 343.64 674.95 L 339.15 664.48 L 336.16 657.00 L 333.17 649.52 L 321.21 648.03 L 310.74 648.03 L 298.77 648.03 L 286.80 646.53 L 274.84 646.53 L 264.37 645.03 L 252.40 643.54 L 238.94 643.54 L 235.95 651.02 L 232.96 658.50 L 229.97 671.96 L 232.96 682.43 L 234.45 694.39 L 234.45 706.36 L 225.48 710.85 L 215.01 710.85 L 206.03 710.85 L 191.08 710.85 L 176.12 709.35 L 176.12 709.35 z M 155.55 42.56 L 162.82 45.28 L 170.26 49.94 L 187.80 64.96 L 202.82 82.51 L 208.34 91.32 L 215.07 104.48 L 221.80 115.25 L 241.00 153.13 L 251.38 167.28 L 257.17 172.13 L 263.99 175.38 L 271.40 176.81 L 278.94 176.35 L 286.12 174.01 L 292.47 169.95 L 295.22 167.36 L 299.64 161.23 L 306.25 144.12 L 307.21 151.46 L 308.37 155.05 L 312.04 161.65 L 317.23 167.13 L 323.63 171.13 L 330.84 173.40 L 338.48 173.88 L 352.90 177.71 L 357.93 180.58 L 361.53 183.59 L 370.56 197.14 L 375.13 205.14 L 378.97 214.09 L 396.05 243.58 L 407.39 261.37 L 407.96 263.31 L 407.96 269.19 L 406.96 277.12 L 405.61 281.86 L 403.43 285.67 L 387.30 302.15 L 385.18 305.28 L 378.09 321.48 L 374.12 334.10 L 373.60 341.64 L 374.06 345.40 L 383.58 374.80 L 385.84 385.00 L 388.33 410.01 L 386.00 432.36 L 381.75 445.59 L 379.09 457.57 L 366.12 496.48 L 358.78 531.04 L 354.29 572.93 L 354.29 579.54 L 355.79 593.00 L 357.15 599.15 L 367.74 628.49 L 388.39 668.97 L 381.68 668.97 L 377.19 668.32 L 372.91 665.88 L 370.47 661.64 L 359.32 635.00 L 354.86 628.91 L 349.01 624.14 L 342.15 620.98 L 324.91 618.34 L 300.68 618.11 L 290.51 616.84 L 276.98 616.62 L 256.11 613.85 L 235.17 613.86 L 227.86 615.75 L 221.26 619.41 L 215.77 624.60 L 211.16 632.43 L 204.00 650.97 L 200.17 669.21 L 200.07 672.99 L 201.43 680.93 L 192.56 680.93 L 179.17 679.27 L 179.86 673.84 L 182.67 667.29 L 187.52 652.33 L 188.04 644.79 L 186.65 637.38 L 185.27 633.86 L 181.24 627.47 L 175.73 622.31 L 172.53 620.29 L 165.51 617.53 L 161.79 616.84 L 153.64 616.62 L 145.34 615.19 L 136.74 615.12 L 126.42 613.64 L 118.91 614.31 L 115.26 615.34 L 108.68 618.65 L 101.17 623.93 L 98.48 626.59 L 95.02 631.41 L 71.61 631.57 L 59.51 630.24 L 63.96 625.57 L 68.38 617.09 L 72.35 604.47 L 72.87 596.93 L 70.78 587.55 L 66.15 576.66 L 61.70 570.58 L 52.48 562.86 L 46.43 556.80 L 43.94 553.33 L 42.64 547.47 L 41.68 538.84 L 44.32 515.22 L 44.50 502.12 L 47.31 489.79 L 50.12 464.40 L 51.94 456.20 L 55.26 449.56 L 60.69 441.96 L 75.56 424.43 L 130.51 369.48 L 168.21 337.15 L 172.25 335.43 L 181.88 333.03 L 201.05 326.47 L 204.34 324.63 L 218.88 314.00 L 221.49 311.26 L 225.31 305.41 L 232.76 289.98 L 236.25 275.20 L 243.46 254.90 L 250.32 244.90 L 251.91 241.46 L 253.70 234.13 L 253.61 226.57 L 252.85 222.88 L 247.94 208.78 L 238.40 193.19 L 230.50 181.66 L 221.20 170.68 L 214.65 164.13 L 206.24 154.23 L 199.69 147.68 L 194.46 141.39 L 189.15 132.90 L 184.02 121.35 L 176.03 106.77 L 147.04 41.45 L 149.29 41.16 z M 311.12 198.31 L 321.83 201.93 L 333.65 203.54 L 340.01 205.23 L 348.31 218.50 L 353.08 229.07 L 370.16 258.57 L 377.21 269.67 L 362.56 285.34 L 358.51 291.73 L 350.69 309.48 L 345.59 325.14 L 344.28 332.02 L 343.91 345.31 L 345.08 352.78 L 354.66 382.65 L 356.24 389.77 L 358.25 409.94 L 356.56 426.18 L 352.56 439.10 L 350.24 449.56 L 336.87 490.26 L 329.03 527.86 L 324.54 569.74 L 324.38 579.54 L 325.17 588.41 L 302.72 588.21 L 291.01 586.93 L 279.21 586.72 L 256.10 583.93 L 231.37 584.19 L 220.39 586.78 L 213.38 589.57 L 203.55 595.30 L 196.96 601.21 L 193.28 598.08 L 183.51 592.47 L 172.89 588.54 L 167.22 587.42 L 156.57 586.76 L 150.38 585.71 L 139.01 585.22 L 126.90 583.72 L 116.23 584.52 L 110.77 585.52 L 101.68 588.68 L 98.31 575.87 L 92.00 561.60 L 85.84 552.90 L 80.90 547.65 L 71.90 539.97 L 74.23 515.62 L 74.37 505.68 L 77.04 493.08 L 79.68 469.27 L 80.96 465.02 L 97.61 444.67 L 150.83 391.45 L 183.48 363.45 L 191.56 361.34 L 210.73 354.79 L 215.65 352.59 L 222.01 348.78 L 240.56 334.61 L 245.60 328.97 L 252.25 318.41 L 261.14 299.48 L 265.00 283.64 L 270.35 268.56 L 277.49 257.42 L 280.43 250.45 L 283.42 237.52 L 283.24 222.45 L 282.15 216.84 L 278.76 206.32 L 284.53 205.74 L 298.87 201.07 L 307.12 196.09 z M 321.52 232.08 L 327.19 244.06 L 339.86 265.93 L 333.25 275.69 L 322.24 300.22 L 317.14 315.88 L 314.38 331.19 L 314.15 348.24 L 315.52 357.39 L 326.63 394.50 L 328.18 409.89 L 327.11 420.12 L 323.34 432.63 L 321.32 441.71 L 307.58 484.15 L 299.28 524.67 L 295.76 557.35 L 281.25 556.82 L 255.78 554.02 L 227.29 554.56 L 209.31 558.99 L 195.74 565.22 L 178.69 559.19 L 169.28 557.58 L 130.56 554.03 L 121.41 554.14 L 116.41 544.31 L 110.25 535.61 L 103.13 527.62 L 104.24 508.98 L 106.78 496.37 L 108.77 478.25 L 119.82 464.74 L 171.14 413.42 L 197.70 390.64 L 222.94 382.10 L 231.04 378.24 L 240.17 372.54 L 258.71 358.38 L 262.86 354.55 L 270.23 345.93 L 279.34 331.13 L 288.22 312.19 L 290.20 306.55 L 293.67 292.27 L 297.41 281.75 L 305.04 269.07 L 309.24 258.52 L 313.19 240.54 L 313.25 230.52 z M 297.15 400.35 L 298.10 409.85 L 297.65 414.17 L 292.44 433.75 L 279.12 474.94 L 269.98 518.68 L 269.09 525.38 L 255.21 524.10 L 222.95 524.96 L 202.16 529.94 L 194.28 532.96 L 183.75 529.71 L 172.01 527.78 L 139.24 524.78 L 133.70 517.12 L 133.96 512.93 L 136.11 502.28 L 137.53 490.33 L 142.09 484.75 L 191.45 435.39 L 212.78 417.10 L 232.52 410.43 L 243.91 405.25 L 256.01 397.91 L 276.87 382.15 L 283.15 376.52 L 288.30 370.79 z M 250.65 465.73 L 244.46 494.46 L 222.16 495.06 L 215.98 495.87 L 193.40 501.38 L 188.59 500.19 L 171.45 497.68 L 211.76 457.37 L 227.84 443.57 L 242.10 438.77 L 256.29 432.49 L 262.54 428.93 z"
 style="fill:#80FF9C; fill-opacity:0.25; fill-rule:nonzero; stroke:#003300; stroke-opacity:1.00; stroke-width:1.50;"/>

"
 <circle r="10" fill="skyblue"><animateMotion dur="10s" repeatCount="indefinite"><mpath href="#test"></mpath></animateMotion></circle> "  

 </svg>
